<svg width="40" height="47" viewBox="0 0 40 47" fill="none" xmlns="http://www.w3.org/2000/svg">
  <path d="M14.5 23.444C12.9815 21.9147 12.2222 20.0683 12.2222 17.9048C12.2222 15.7413 12.9815 13.8948 14.5 12.3655C16.0185 10.8361 17.8519 10.0714 20 10.0714C22.1481 10.0714 23.9815 10.8361 25.5 12.3655C27.0185 13.8948 27.7778 15.7413 27.7778 17.9048C27.7778 20.0683 27.0185 21.9147 25.5 23.444C23.9815 24.9734 22.1481 25.7381 20 25.7381C17.8519 25.7381 16.0185 24.9734 14.5 23.444ZM22.3611 20.2827C23.0093 19.63 23.3333 18.8373 23.3333 17.9048C23.3333 16.9722 23.0093 16.1796 22.3611 15.5268C21.713 14.874 20.9259 14.5476 20 14.5476C19.0741 14.5476 18.287 14.874 17.6389 15.5268C16.9907 16.1796 16.6667 16.9722 16.6667 17.9048C16.6667 18.8373 16.9907 19.63 17.6389 20.2827C18.287 20.9355 19.0741 21.2619 20 21.2619C20.9259 21.2619 21.713 20.9355 22.3611 20.2827ZM20 47L0 34.6905V12.3095L20 0L40 12.3095V34.6905L20 47ZM20 41.7964L28.1667 36.7048C26.9074 36.0333 25.5833 35.5298 24.1944 35.194C22.8056 34.8583 21.4074 34.6905 20 34.6905C18.5926 34.6905 17.1944 34.8583 15.8056 35.194C14.4167 35.5298 13.0926 36.0333 11.8333 36.7048L20 41.7964ZM7.55556 34.075C9.40741 32.8067 11.3889 31.8462 13.5 31.1935C15.6111 30.5407 17.7778 30.2143 20 30.2143C22.2222 30.2143 24.3889 30.5407 26.5 31.1935C28.6111 31.8462 30.5926 32.8067 32.4444 34.075L35.5556 32.2286V14.8274L20 5.25952L4.44444 14.8274V32.2286L7.55556 34.075Z" fill="#E3E3E3"/>
</svg>
